<svg xmlns="http://www.w3.org/2000/svg" xmlns:xlink="http://www.w3.org/1999/xlink" width="169" zoomAndPan="magnify" viewBox="0 0 126.75 38.249999" height="51" preserveAspectRatio="xMidYMid meet" version="1.0"><defs><g/><clipPath id="43b76cb6d8"><path d="M 98.929688 2.730469 L 116.789062 2.730469 L 116.789062 13.238281 L 98.929688 13.238281 Z M 98.929688 2.730469 " clip-rule="nonzero"/></clipPath><clipPath id="bf20fecb17"><path d="M 116.617188 4.949219 L 117.742188 4.949219 L 117.742188 6.238281 L 116.617188 6.238281 Z M 116.617188 4.949219 " clip-rule="nonzero"/></clipPath><clipPath id="7db76a1f9b"><path d="M 107 0.738281 L 109 0.738281 L 109 3 L 107 3 Z M 107 0.738281 " clip-rule="nonzero"/></clipPath><clipPath id="b0dd2952ba"><path d="M 97.144531 6 L 100 6 L 100 8 L 97.144531 8 Z M 97.144531 6 " clip-rule="nonzero"/></clipPath></defs><g clip-path="url(#43b76cb6d8)"><path fill="#e2ab23" d="M 116.769531 6.878906 C 116.605469 6.695312 115.921875 7.5625 115.828125 7.660156 C 115.1875 8.3125 114.269531 9.132812 113.3125 9.105469 C 112.390625 9.078125 112.007812 8.035156 111.925781 7.226562 C 111.882812 6.707031 111.921875 6.167969 112.101562 5.679688 C 112.148438 5.546875 112.039062 5.40625 111.910156 5.40625 C 111.671875 5.40625 111.558594 5.867188 111.488281 6.03125 C 111.175781 6.71875 110.917969 7.496094 110.378906 8.035156 C 109.453125 8.957031 108.746094 7.664062 108.570312 6.808594 C 108.402344 5.980469 108.394531 5.128906 108.375 4.289062 C 108.367188 3.847656 108.378906 3.386719 108.296875 2.949219 C 108.222656 2.53125 107.878906 2.867188 107.859375 3.140625 C 107.746094 4.738281 107.636719 6.792969 106.8125 8.199219 C 106.3125 9.046875 105.554688 8.925781 105.003906 8.234375 C 104.355469 7.429688 104.257812 6.578125 104.027344 5.613281 C 103.921875 5.164062 103.644531 5.722656 103.679688 5.964844 C 103.75 6.496094 103.820312 7.011719 103.8125 7.554688 C 103.796875 8.4375 103.640625 9.734375 102.585938 9.867188 C 101.660156 9.945312 101.1875 9.132812 100.457031 8.886719 C 100.472656 8.867188 100.472656 8.863281 100.460938 8.875 C 100.230469 8.628906 99.808594 8.246094 99.53125 7.929688 C 99.464844 7.863281 99.09375 7.335938 98.976562 7.726562 C 98.882812 8.035156 99.726562 9.015625 99.894531 9.289062 C 100.09375 9.617188 101.390625 12.199219 101.632812 12.0625 C 101.984375 11.867188 100.5 9.574219 100.308594 9.253906 C 101.046875 9.894531 102.148438 10.636719 103.136719 10.144531 C 104.03125 9.699219 104.207031 8.519531 104.222656 7.597656 C 104.691406 8.535156 105.738281 9.820312 106.789062 8.851562 C 107.636719 8.074219 107.867188 6.660156 108.035156 5.5625 C 108.085938 6.550781 108.152344 7.929688 109.007812 8.570312 C 110.140625 9.425781 111.082031 7.980469 111.503906 7.050781 C 111.53125 8 111.820312 9.179688 112.769531 9.5625 C 113.894531 10.015625 115.035156 9.082031 115.785156 8.316406 C 115.40625 9.066406 115.015625 9.796875 114.691406 10.574219 C 114.554688 10.898438 114.417969 11.226562 114.253906 11.535156 C 113.992188 12.03125 113.984375 11.863281 113.53125 11.632812 C 111.789062 10.761719 109.757812 10.71875 107.867188 10.851562 C 106.074219 11.027344 103.824219 10.609375 102.214844 11.632812 C 101.457031 12.113281 101.519531 13.78125 102.46875 13.058594 C 103.296875 12.453125 104.367188 12.292969 105.355469 12.238281 C 107.3125 12.136719 109.449219 12.144531 111.394531 12.363281 C 112.167969 12.453125 112.929688 12.730469 113.691406 12.8125 C 113.777344 12.835938 114.257812 13.015625 114.09375 12.691406 C 113.996094 12.507812 113.515625 12.445312 113.378906 12.40625 C 111.546875 11.820312 109.707031 11.953125 107.828125 11.890625 C 105.996094 11.832031 103.671875 11.589844 102.117188 12.820312 C 101.390625 11.34375 106.050781 11.351562 106.695312 11.339844 C 108.601562 11.3125 110.480469 11.121094 112.347656 11.648438 C 113.125 11.867188 113.996094 12.808594 114.496094 11.847656 C 114.871094 11.132812 115.054688 10.332031 115.394531 9.601562 C 115.507812 9.378906 116.90625 7.03125 116.769531 6.878906 " fill-opacity="1" fill-rule="nonzero"/></g><g clip-path="url(#bf20fecb17)"><path fill="#e2ab23" d="M 117.351562 5.726562 C 117.3125 5.890625 117.089844 5.863281 117.023438 5.734375 C 116.933594 5.410156 117.390625 5.238281 117.351562 5.726562 M 117.738281 5.59375 C 117.644531 4.597656 116.527344 4.886719 116.65625 5.777344 C 116.75 6.476562 117.800781 6.3125 117.738281 5.59375 " fill-opacity="1" fill-rule="nonzero"/></g><path fill="#e2ab23" d="M 111.851562 4.34375 C 111.90625 4.109375 112.40625 4.035156 112.460938 4.296875 C 112.480469 4.699219 111.800781 4.769531 111.851562 4.34375 M 111.726562 4.734375 C 112.234375 5.304688 113.160156 4.316406 112.46875 3.882812 C 111.96875 3.574219 111.289062 4.242188 111.726562 4.734375 " fill-opacity="1" fill-rule="nonzero"/><g clip-path="url(#7db76a1f9b)"><path fill="#e2ab23" d="M 107.707031 1.492188 C 107.699219 1.230469 108.136719 1.007812 108.191406 1.324219 C 108.199219 1.609375 107.769531 1.839844 107.707031 1.492188 M 107.921875 2.058594 C 108.691406 2.058594 108.792969 0.746094 107.945312 0.777344 C 107.199219 0.808594 107.097656 2.058594 107.921875 2.058594 " fill-opacity="1" fill-rule="nonzero"/></g><path fill="#e2ab23" d="M 103.34375 4.199219 C 103.476562 4.191406 103.894531 3.925781 103.738281 4.335938 C 103.578125 4.65625 103.171875 4.515625 103.34375 4.199219 M 103.050781 4.714844 C 103.550781 5.4375 104.632812 4.277344 103.941406 3.765625 C 103.375 3.351562 102.644531 4.132812 103.050781 4.714844 " fill-opacity="1" fill-rule="nonzero"/><g clip-path="url(#b0dd2952ba)"><path fill="#e2ab23" d="M 98.160156 6.679688 C 98.226562 6.386719 98.640625 6.429688 98.609375 6.734375 C 98.535156 7.089844 98.125 7.027344 98.160156 6.679688 M 98.925781 6.359375 C 98.347656 5.417969 97.144531 6.761719 98.078125 7.320312 C 98.628906 7.648438 99.273438 6.929688 98.925781 6.359375 " fill-opacity="1" fill-rule="nonzero"/></g><g fill="#e2ab23" fill-opacity="1"><g transform="translate(6.776937, 28.721997)"><g><path d="M 5.53125 -13.421875 L 5.53125 -10.046875 L 10.96875 -10.046875 L 10.96875 -6.90625 L 5.53125 -6.90625 L 5.53125 -3.25 L 11.6875 -3.25 L 11.6875 0 L 1.46875 0 L 1.46875 -16.671875 L 11.6875 -16.671875 L 11.6875 -13.421875 Z M 5.53125 -13.421875 "/></g></g></g><g fill="#e2ab23" fill-opacity="1"><g transform="translate(19.623133, 28.721997)"><g><path d="M 5.53125 -17.578125 L 5.53125 0 L 1.46875 0 L 1.46875 -17.578125 Z M 5.53125 -17.578125 "/></g></g></g><g fill="#e2ab23" fill-opacity="1"><g transform="translate(26.627994, 28.721997)"><g><path d="M 3.515625 -14.625 C 2.804688 -14.625 2.222656 -14.832031 1.765625 -15.25 C 1.316406 -15.675781 1.09375 -16.195312 1.09375 -16.8125 C 1.09375 -17.445312 1.316406 -17.972656 1.765625 -18.390625 C 2.222656 -18.816406 2.804688 -19.03125 3.515625 -19.03125 C 4.210938 -19.03125 4.785156 -18.816406 5.234375 -18.390625 C 5.679688 -17.972656 5.90625 -17.445312 5.90625 -16.8125 C 5.90625 -16.195312 5.679688 -15.675781 5.234375 -15.25 C 4.785156 -14.832031 4.210938 -14.625 3.515625 -14.625 Z M 5.53125 -13.25 L 5.53125 0 L 1.46875 0 L 1.46875 -13.25 Z M 5.53125 -13.25 "/></g></g></g><g fill="#e2ab23" fill-opacity="1"><g transform="translate(33.632855, 28.721997)"><g><path d="M 8.859375 -3.4375 L 8.859375 0 L 6.796875 0 C 5.316406 0 4.164062 -0.359375 3.34375 -1.078125 C 2.519531 -1.796875 2.109375 -2.972656 2.109375 -4.609375 L 2.109375 -9.875 L 0.5 -9.875 L 0.5 -13.25 L 2.109375 -13.25 L 2.109375 -16.484375 L 6.171875 -16.484375 L 6.171875 -13.25 L 8.828125 -13.25 L 8.828125 -9.875 L 6.171875 -9.875 L 6.171875 -4.5625 C 6.171875 -4.164062 6.265625 -3.878906 6.453125 -3.703125 C 6.648438 -3.523438 6.96875 -3.4375 7.40625 -3.4375 Z M 8.859375 -3.4375 "/></g></g></g><g fill="#e2ab23" fill-opacity="1"><g transform="translate(43.27344, 28.721997)"><g><path d="M 13.96875 -6.84375 C 13.96875 -6.457031 13.941406 -6.0625 13.890625 -5.65625 L 4.703125 -5.65625 C 4.765625 -4.832031 5.03125 -4.203125 5.5 -3.765625 C 5.96875 -3.328125 6.539062 -3.109375 7.21875 -3.109375 C 8.226562 -3.109375 8.929688 -3.535156 9.328125 -4.390625 L 13.65625 -4.390625 C 13.4375 -3.523438 13.035156 -2.742188 12.453125 -2.046875 C 11.878906 -1.347656 11.15625 -0.800781 10.28125 -0.40625 C 9.414062 -0.0078125 8.441406 0.1875 7.359375 0.1875 C 6.066406 0.1875 4.910156 -0.0859375 3.890625 -0.640625 C 2.878906 -1.191406 2.085938 -1.984375 1.515625 -3.015625 C 0.953125 -4.046875 0.671875 -5.25 0.671875 -6.625 C 0.671875 -8 0.945312 -9.203125 1.5 -10.234375 C 2.0625 -11.265625 2.847656 -12.054688 3.859375 -12.609375 C 4.878906 -13.160156 6.046875 -13.4375 7.359375 -13.4375 C 8.640625 -13.4375 9.78125 -13.164062 10.78125 -12.625 C 11.78125 -12.09375 12.5625 -11.328125 13.125 -10.328125 C 13.6875 -9.328125 13.96875 -8.164062 13.96875 -6.84375 Z M 9.8125 -7.90625 C 9.8125 -8.601562 9.570312 -9.15625 9.09375 -9.5625 C 8.625 -9.976562 8.03125 -10.1875 7.3125 -10.1875 C 6.632812 -10.1875 6.0625 -9.988281 5.59375 -9.59375 C 5.125 -9.195312 4.832031 -8.632812 4.71875 -7.90625 Z M 9.8125 -7.90625 "/></g></g></g><g fill="#e2ab23" fill-opacity="1"><g transform="translate(57.900528, 28.721997)"><g><path d="M 6.859375 0.1875 C 5.703125 0.1875 4.671875 -0.0078125 3.765625 -0.40625 C 2.867188 -0.800781 2.160156 -1.34375 1.640625 -2.03125 C 1.117188 -2.71875 0.828125 -3.488281 0.765625 -4.34375 L 4.78125 -4.34375 C 4.820312 -3.882812 5.03125 -3.507812 5.40625 -3.21875 C 5.789062 -2.9375 6.257812 -2.796875 6.8125 -2.796875 C 7.320312 -2.796875 7.710938 -2.894531 7.984375 -3.09375 C 8.265625 -3.289062 8.40625 -3.550781 8.40625 -3.875 C 8.40625 -4.25 8.207031 -4.523438 7.8125 -4.703125 C 7.414062 -4.890625 6.773438 -5.09375 5.890625 -5.3125 C 4.941406 -5.539062 4.148438 -5.773438 3.515625 -6.015625 C 2.878906 -6.265625 2.332031 -6.65625 1.875 -7.1875 C 1.414062 -7.71875 1.1875 -8.429688 1.1875 -9.328125 C 1.1875 -10.085938 1.394531 -10.78125 1.8125 -11.40625 C 2.238281 -12.03125 2.859375 -12.523438 3.671875 -12.890625 C 4.484375 -13.253906 5.453125 -13.4375 6.578125 -13.4375 C 8.242188 -13.4375 9.554688 -13.023438 10.515625 -12.203125 C 11.472656 -11.378906 12.019531 -10.289062 12.15625 -8.9375 L 8.40625 -8.9375 C 8.34375 -9.394531 8.140625 -9.753906 7.796875 -10.015625 C 7.460938 -10.285156 7.015625 -10.421875 6.453125 -10.421875 C 5.984375 -10.421875 5.617188 -10.328125 5.359375 -10.140625 C 5.109375 -9.960938 4.984375 -9.71875 4.984375 -9.40625 C 4.984375 -9.019531 5.1875 -8.734375 5.59375 -8.546875 C 6 -8.359375 6.628906 -8.171875 7.484375 -7.984375 C 8.460938 -7.722656 9.257812 -7.46875 9.875 -7.21875 C 10.5 -6.976562 11.039062 -6.582031 11.5 -6.03125 C 11.96875 -5.488281 12.210938 -4.757812 12.234375 -3.84375 C 12.234375 -3.070312 12.015625 -2.378906 11.578125 -1.765625 C 11.140625 -1.160156 10.515625 -0.679688 9.703125 -0.328125 C 8.890625 0.015625 7.941406 0.1875 6.859375 0.1875 Z M 6.859375 0.1875 "/></g></g></g><g fill="#ffffff" fill-opacity="1"><g transform="translate(71.151406, 28.721997)"><g><path d="M 7.71875 -16.671875 C 9.476562 -16.671875 11.015625 -16.320312 12.328125 -15.625 C 13.640625 -14.925781 14.65625 -13.945312 15.375 -12.6875 C 16.09375 -11.4375 16.453125 -9.988281 16.453125 -8.34375 C 16.453125 -6.707031 16.09375 -5.253906 15.375 -3.984375 C 14.65625 -2.722656 13.632812 -1.742188 12.3125 -1.046875 C 10.988281 -0.347656 9.457031 0 7.71875 0 L 1.46875 0 L 1.46875 -16.671875 Z M 7.453125 -3.515625 C 8.992188 -3.515625 10.191406 -3.929688 11.046875 -4.765625 C 11.898438 -5.609375 12.328125 -6.800781 12.328125 -8.34375 C 12.328125 -9.875 11.898438 -11.066406 11.046875 -11.921875 C 10.191406 -12.773438 8.992188 -13.203125 7.453125 -13.203125 L 5.53125 -13.203125 L 5.53125 -3.515625 Z M 7.453125 -3.515625 "/></g></g></g><g fill="#ffffff" fill-opacity="1"><g transform="translate(88.414218, 28.721997)"><g><path d="M 13.96875 -6.84375 C 13.96875 -6.457031 13.941406 -6.0625 13.890625 -5.65625 L 4.703125 -5.65625 C 4.765625 -4.832031 5.03125 -4.203125 5.5 -3.765625 C 5.96875 -3.328125 6.539062 -3.109375 7.21875 -3.109375 C 8.226562 -3.109375 8.929688 -3.535156 9.328125 -4.390625 L 13.65625 -4.390625 C 13.4375 -3.523438 13.035156 -2.742188 12.453125 -2.046875 C 11.878906 -1.347656 11.15625 -0.800781 10.28125 -0.40625 C 9.414062 -0.0078125 8.441406 0.1875 7.359375 0.1875 C 6.066406 0.1875 4.910156 -0.0859375 3.890625 -0.640625 C 2.878906 -1.191406 2.085938 -1.984375 1.515625 -3.015625 C 0.953125 -4.046875 0.671875 -5.25 0.671875 -6.625 C 0.671875 -8 0.945312 -9.203125 1.5 -10.234375 C 2.0625 -11.265625 2.847656 -12.054688 3.859375 -12.609375 C 4.878906 -13.160156 6.046875 -13.4375 7.359375 -13.4375 C 8.640625 -13.4375 9.78125 -13.164062 10.78125 -12.625 C 11.78125 -12.09375 12.5625 -11.328125 13.125 -10.328125 C 13.6875 -9.328125 13.96875 -8.164062 13.96875 -6.84375 Z M 9.8125 -7.90625 C 9.8125 -8.601562 9.570312 -9.15625 9.09375 -9.5625 C 8.625 -9.976562 8.03125 -10.1875 7.3125 -10.1875 C 6.632812 -10.1875 6.0625 -9.988281 5.59375 -9.59375 C 5.125 -9.195312 4.832031 -8.632812 4.71875 -7.90625 Z M 9.8125 -7.90625 "/></g></g></g><g fill="#ffffff" fill-opacity="1"><g transform="translate(103.041306, 28.721997)"><g><path d="M 7.4375 -3.796875 L 10.3125 -13.25 L 14.625 -13.25 L 9.921875 0 L 4.921875 0 L 0.21875 -13.25 L 4.5625 -13.25 Z M 7.4375 -3.796875 "/></g></g></g></svg>